<svg xmlns="http://www.w3.org/2000/svg" viewBox="0 0 159.83 139.7"><rect width="159.83" height="139.7" rx="28" fill="#06080f"/><path d="M121.35,34.77c-1.38-1.63-3.4-2.57-5.52-2.57h-60.88c-3.39,0-6.3,2.42-6.91,5.75l-11.16,61.01c-.38,2.1.19,4.25,1.57,5.9,1.39,1.66,3.41,2.62,5.56,2.62h61.97c3.46,0,6.37-2.47,6.93-5.87l10.07-61.01c.34-2.08-.25-4.21-1.63-5.83ZM68.74,42.53c5.65-.23,11.13.79,16.34,3.03,5.21,2.24,9.73,5.53,13.44,9.77l.95,1.08-17.51-3.83-14.66-10,1.44-.06ZM57.38,82.64l-.26-.13v-.29c-.12-7.38.16-12.31,1.12-19.57l.04-.32.32-.08c7.55-1.82,12.74-2.71,20.57-3.54l.27-.03.16.21c4.78,6.25,7.7,10.63,11.59,17.36l.16.28-.21.25c-4.6,5.68-7.98,9.29-13.42,14.28l-.21.19-.27-.1c-7.62-2.74-12.63-4.89-19.87-8.54ZM46.86,49.79c4.27-3.22,9.27-5.53,14.84-6.52l-.03.36c-2.03.59-3.97,1.37-5.83,2.3l-5.56,12.35-5.64,3.71,2.23-12.19ZM37.83,99.13l2.43-13.28,5.92,4.34,2.32,16.31h-4.5c-3.89,0-6.87-3.56-6.17-7.37ZM99.23,106.5h-23.11l5.03-4.72,13.13,2.52c1.67-1.54,3.21-3.27,4.57-5.2,1.33-1.84,2.46-3.8,3.42-5.83l-2.45-13.71,5.41-13.23.42,1.17c.22.61.38,1.23.56,1.84,4.6,12.1,1.81,26.93-6.98,37.15Z" fill="#4ade80"/></svg>
